/* XPM */
static char * bitcoin32_xpm[] = {
"32 32 302 2",
"  	c None",
". 	c #FBE464",
"+ 	c #FAEC82",
"@ 	c #FAED7F",
"# 	c #FAED79",
"$ 	c #FAEC7F",
"% 	c #FAEA7A",
"& 	c #FBE25C",
"* 	c #FAEB79",
"= 	c #FAF082",
"- 	c #FAF27B",
"; 	c #FAF275",
"> 	c #FAF381",
", 	c #FAF189",
"' 	c #FAEB81",
") 	c #FAEA78",
"! 	c #FAF180",
"~ 	c #FAF172",
"{ 	c #FAF28C",
"] 	c #FAE979",
"^ 	c #FAEF81",
"/ 	c #FAF16F",
"( 	c #F3E267",
"_ 	c #EDD35E",
": 	c #F6E96B",
"< 	c #FAF176",
"[ 	c #FAEF89",
"} 	c #FAEE77",
"| 	c #FAF06D",
"1 	c #EFD94F",
"2 	c #EFD732",
"3 	c #EFD51B",
"4 	c #F5E312",
"5 	c #F9EB10",
"6 	c #EFD738",
"7 	c #F0D955",
"8 	c #FAED78",
"9 	c #FAED6E",
"0 	c #FAEF6A",
"a 	c #EFD74D",
"b 	c #F2D920",
"c 	c #F8E612",
"d 	c #F3DF57",
"e 	c #FAEC70",
"f 	c #FAED6D",
"g 	c #FAEF67",
"h 	c #F6E763",
"i 	c #EED231",
"j 	c #F7E211",
"k 	c #F2DA3A",
"l 	c #FAEE85",
"m 	c #FAEE78",
"n 	c #FAEE65",
"o 	c #F6E661",
"p 	c #EECD26",
"q 	c #F6DD12",
"r 	c #F7E43B",
"s 	c #F9ED6C",
"t 	c #F9F38E",
"u 	c #F9F384",
"v 	c #F9ED6F",
"w 	c #F7DF1E",
"x 	c #F7E331",
"y 	c #FAEE6C",
"z 	c #FAEB7F",
"A 	c #FAEE62",
"B 	c #ECCA26",
"C 	c #F4D813",
"D 	c #F6E245",
"E 	c #F8EE6A",
"F 	c #F8ED5A",
"G 	c #F8EB64",
"H 	c #F0D434",
"I 	c #FAEF74",
"J 	c #FBF17D",
"K 	c #FBEE5F",
"L 	c #EECF3E",
"M 	c #F3D314",
"N 	c #F9EB6A",
"O 	c #F9E956",
"P 	c #F5DC39",
"Q 	c #F5E049",
"R 	c #FBEE82",
"S 	c #FBED5C",
"T 	c #F4DE56",
"U 	c #ECC517",
"V 	c #F2CF15",
"W 	c #F9E552",
"X 	c #B67F30",
"Y 	c #9C5518",
"Z 	c #CFA53B",
"` 	c #F5DB3B",
" .	c #EDC61B",
"..	c #F7E559",
"+.	c #FBEC6C",
"@.	c #FBEC59",
"#.	c #EAC334",
"$.	c #F1CB16",
"%.	c #F9E04E",
"&.	c #CA9415",
"*.	c #F4D430",
"=.	c #EDCA2E",
"-.	c #F4DA41",
";.	c #FBEB56",
">.	c #E6B620",
",.	c #F0C718",
"'.	c #FADC49",
").	c #F1CC27",
"!.	c #F6DA56",
"~.	c #F9DF58",
"{.	c #CB9620",
"].	c #EABF27",
"^.	c #FBEB72",
"/.	c #FBEB52",
"(.	c #FBEB53",
"_.	c #EDCF48",
":.	c #EFC31B",
"<.	c #FAD845",
"[.	c #F2C826",
"}.	c #E1B745",
"|.	c #D0991A",
"1.	c #ECBE1C",
"2.	c #F7E450",
"3.	c #FBED6F",
"4.	c #FBEA4F",
"5.	c #EAC339",
"6.	c #EEBF1D",
"7.	c #FAD441",
"8.	c #F1C426",
"9.	c #FAD954",
"0.	c #F3CE46",
"a.	c #F2D644",
"b.	c #FBE852",
"c.	c #FBE94B",
"d.	c #EAC237",
"e.	c #EDBB1E",
"f.	c #ECB91F",
"g.	c #FAD13D",
"h.	c #EBB921",
"i.	c #AF6B26",
"j.	c #D8A433",
"k.	c #FAD650",
"l.	c #EEBF2A",
"m.	c #EDC93A",
"n.	c #FBE540",
"o.	c #FBE948",
"p.	c #E9C136",
"q.	c #EBB71F",
"r.	c #E4AE22",
"s.	c #FACD39",
"t.	c #BE7C1B",
"u.	c #D69E2F",
"v.	c #EEBB26",
"w.	c #FBE43D",
"x.	c #FBE844",
"y.	c #E9BF34",
"z.	c #E7AF21",
"A.	c #DCA225",
"B.	c #DBA126",
"C.	c #D99E27",
"D.	c #D69B28",
"E.	c #FAC937",
"F.	c #D79C27",
"G.	c #DA9F26",
"H.	c #EABB44",
"I.	c #C88826",
"J.	c #DFA524",
"K.	c #E0A624",
"L.	c #E6AE21",
"M.	c #F3D339",
"N.	c #FBDE38",
"O.	c #FBE741",
"P.	c #EBC536",
"Q.	c #E3A822",
"R.	c #D59628",
"S.	c #DA9F33",
"T.	c #E8BB56",
"U.	c #FBC533",
"V.	c #F1D482",
"W.	c #F4D06E",
"X.	c #FBC83D",
"Y.	c #BE7824",
"Z.	c #DFA224",
"`.	c #EDCC3B",
" +	c #FBE53F",
".+	c #FBE053",
"++	c #FCCA26",
"@+	c #FBD32D",
"#+	c #FBE53C",
"$+	c #F4D93B",
"%+	c #E1A223",
"&+	c #D49128",
"*+	c #DE9D29",
"=+	c #FBC22E",
"-+	c #EAAD2B",
";+	c #BC7323",
">+	c #DEA026",
",+	c #FBE73D",
"'+	c #FBE33A",
")+	c #FBCF2A",
"!+	c #FBD03C",
"~+	c #FCCA23",
"{+	c #FBCD26",
"]+	c #FBE035",
"^+	c #E3AA28",
"/+	c #D48D27",
"(+	c #D38C28",
"_+	c #DC9828",
":+	c #FABE2A",
"<+	c #AA5C1E",
"[+	c #EABA2C",
"}+	c #FBD930",
"|+	c #FBCB25",
"1+	c #FBCB24",
"2+	c #ECC32F",
"3+	c #DA9326",
"4+	c #D28728",
"5+	c #DA9127",
"6+	c #D99322",
"7+	c #FBBA27",
"8+	c #A4541C",
"9+	c #C17324",
"0+	c #D99126",
"a+	c #F1CC30",
"b+	c #FCCA20",
"c+	c #FBD529",
"d+	c #DF9F27",
"e+	c #D28428",
"f+	c #D18328",
"g+	c #A34E1E",
"h+	c #FAB623",
"i+	c #AE5B21",
"j+	c #CB7C27",
"k+	c #E1A629",
"l+	c #FBD226",
"m+	c #FBCD23",
"n+	c #FCC91F",
"o+	c #F1C729",
"p+	c #D98E26",
"q+	c #D07E28",
"r+	c #FAB221",
"s+	c #DA9327",
"t+	c #F6D029",
"u+	c #FCC91D",
"v+	c #FCCA1E",
"w+	c #EEC027",
"x+	c #D58327",
"y+	c #CE7828",
"z+	c #FAAF1E",
"A+	c #D38228",
"B+	c #F0C326",
"C+	c #FCCC1E",
"D+	c #FCC81B",
"E+	c #FCCD1D",
"F+	c #EFC225",
"G+	c #D58328",
"H+	c #CD7328",
"I+	c #A6501A",
"J+	c #964016",
"K+	c #D78827",
"L+	c #ECBB24",
"M+	c #FCCA1C",
"N+	c #FCC819",
"O+	c #FCCB1A",
"P+	c #EFC121",
"Q+	c #D68827",
"R+	c #CE7227",
"S+	c #CC6E28",
"T+	c #CF7427",
"U+	c #D98F26",
"V+	c #F4CB20",
"W+	c #FCC91A",
"X+	c #FCC817",
"Y+	c #FCC917",
"Z+	c #F8CE1A",
"`+	c #E9B521",
" @	c #D48326",
".@	c #D07427",
"+@	c #CC6C27",
"@@	c #CC6A28",
"#@	c #D17627",
"$@	c #D78A26",
"%@	c #EDBE1F",
"&@	c #FCD319",
"*@	c #FCC715",
"=@	c #FCCA15",
"-@	c #FCD416",
";@	c #EDBE1B",
">@	c #E7B21E",
",@	c #DB9623",
"'@	c #D99223",
")@	c #DC9923",
"!@	c #F3CA19",
"~@	c #FCD216",
"{@	c #FCC915",
"]@	c #FCC713",
"^@	c #FCC813",
"/@	c #FCCD13",
"(@	c #FCCB13",
"_@	c #FCC710",
":@	c #FBC510",
"<@	c #FCC70F",
"                      . + @ # # # # $ % &                       ",
"                  * = - ; ; ; ; ; ; ; ; > , '                   ",
"              ) ! ~ ~ ~ ~ ~ ~ ~ ~ ~ ~ ~ ~ ~ ~ { ]               ",
"            ^ / / / / / / / ( _ _ : / / / / / / < [             ",
"          } | | | | | 1 2 3 4 5 5 4 3 6 7 | | | | | 8           ",
"        9 0 0 0 0 a b c c c c c c c c c c b d 0 0 0 0 e         ",
"      f g g g h i j j j j j j j j j j j j j j k g g g g l       ",
"    m n n n o p q q q q q r s t u t v w q q q q x n n n y z     ",
"    0 A A A B C C C C C D E F F F F F G C C C C C H A A A I     ",
"  J K K K L M M M M M M N O O O O O O O P M M M M M Q K K K R   ",
"  S S S T U V V V V V V W W W X Y Z W W ` V V V V V  ...S S +.  ",
"  @.@.@.#.$.$.$.$.$.$.$.%.%.%.&.$.*.%.%.=.$.$.$.$.$.$.-.@.@.@.  ",
";.;.;.;.>.,.,.,.,.,.,.,.'.'.'.).!.~.'.'.{.,.,.,.,.,.,.].;.;.;.^.",
"/.(.(._.:.:.:.:.:.:.:.:.<.<.<.[.<.<.<.}.|.:.:.:.:.:.:.1.2.(.(.3.",
"4.4.4.5.6.6.6.6.6.6.6.6.7.7.7.8.7.7.7.9.0.6.6.6.6.6.6.6.a.4.4.b.",
"c.c.c.d.e.e.e.e.e.e.e.f.g.g.g.h.i.j.g.g.k.l.e.e.e.e.e.e.m.c.c.n.",
"o.o.o.p.q.q.q.q.q.q.q.r.s.s.s.r.q.t.u.s.s.v.q.q.q.q.q.q.p.o.o.w.",
"x.x.x.y.z.A.B.B.B.B.C.D.E.E.E.F.B.G.H.E.E.I.J.K.A.B.A.L.M.x.x.x.",
"N.O.O.P.Q.R.R.R.R.R.S.T.U.U.U.V.V.W.X.U.U.Y.R.R.R.R.R.Z.`.O. +.+",
"++@+#+$+%+&+&+&+&+&+*+=+=+=+=+=+=+=+=+=+-+;+&+&+&+&+&+>+,+'+)+!+",
"  ~+{+]+^+/+(+(+(+(+_+:+:+:+:+:+:+:+:+:+<+(+(+(+(+(+(+[+}+|+~+  ",
"  ~+~+1+2+3+4+4+4+4+5+6+7+7+7+6+6+6+6+8+9+4+4+4+4+4+0+a+~+~+~+  ",
"  b+b+b+c+d+e+f+f+f+f+g+h+h+h+g+g+g+i+j+f+f+f+f+f+e+k+l+b+b+m+  ",
"    n+n+n+o+p+q+q+q+q+q+r+r+r+q+q+q+q+q+q+q+q+q+q+s+t+n+n+n+    ",
"    u+u+u+v+w+x+y+y+y+y+z+z+z+y+y+y+y+y+y+y+y+y+A+B+v+u+u+C+    ",
"      D+D+D+E+F+G+H+H+H+I+J+J+H+H+H+H+H+H+H+H+K+L+M+D+D+M+      ",
"        N+N+N+O+P+Q+R+S+S+S+S+S+S+S+S+S+S+T+U+V+W+N+N+N+        ",
"          X+X+X+Y+Z+`+ @.@+@@@@@@@@@+@#@$@%@&@X+X+X+X+          ",
"            *@*@*@*@=@-@;@>@,@'@'@)@>@!@~@{@*@*@*@{@            ",
"              ]@]@]@]@]@]@^@/@/@/@/@]@]@]@]@]@]@(@              ",
"                  _@_@_@_@_@_@_@_@_@_@_@_@_@_@                  ",
"                      :@<@<@<@<@<@<@<@<@                        "};
