/* XPM */
static char * bitcoin16_xpm[] = {
"16 16 132 2",
"  	c None",
". 	c #FAF288",
"+ 	c #FAF077",
"@ 	c #FAF48E",
"# 	c #FAF07D",
"$ 	c #FAED78",
"% 	c #FAF183",
"& 	c #FAF171",
"* 	c #FAF277",
"= 	c #FAEF7B",
"- 	c #FAF284",
"; 	c #FAF06C",
"> 	c #F9EF66",
", 	c #F9EB3F",
"' 	c #F8EA22",
") 	c #F8E911",
"! 	c #F9EC45",
"~ 	c #FAEE76",
"{ 	c #FAED6A",
"] 	c #FAEE66",
"^ 	c #F9EB57",
"/ 	c #F7E11C",
"( 	c #F7E012",
"_ 	c #F7E323",
": 	c #F8EC56",
"< 	c #F8EA40",
"[ 	c #F8E634",
"} 	c #F7E222",
"| 	c #F9ED61",
"1 	c #FAEF7C",
"2 	c #FAEE61",
"3 	c #FAEC5C",
"4 	c #F4D719",
"5 	c #F4D614",
"6 	c #F8EC64",
"7 	c #F8EC59",
"8 	c #F8EC60",
"9 	c #F4D91C",
"0 	c #F5DA22",
"a 	c #FBEC5B",
"b 	c #F5D930",
"c 	c #F2CE15",
"d 	c #F9E350",
"e 	c #DFBB3E",
"f 	c #DDB630",
"g 	c #ECC824",
"h 	c #F6DD38",
"i 	c #FBEB61",
"j 	c #FBEB54",
"k 	c #FBEB55",
"l 	c #F0C81D",
"m 	c #F0C619",
"n 	c #FADB48",
"o 	c #F6D439",
"p 	c #F9DB4D",
"q 	c #E1B31F",
"r 	c #F1CA21",
"s 	c #FBEC62",
"t 	c #FBEA4E",
"u 	c #F7DF41",
"v 	c #EEBE1D",
"w 	c #ECBC1E",
"x 	c #FAD33F",
"y 	c #F5CB35",
"z 	c #E9BC3A",
"A 	c #F4CF4A",
"B 	c #FAE74B",
"C 	c #FBE846",
"D 	c #F6DB3D",
"E 	c #E5AE22",
"F 	c #E1A923",
"G 	c #DFA724",
"H 	c #FACB38",
"I 	c #EBB82F",
"J 	c #D29622",
"K 	c #EFC03F",
"L 	c #F3C333",
"M 	c #F8DF3F",
"N 	c #FBD733",
"O 	c #F9E23C",
"P 	c #D99A26",
"Q 	c #D59428",
"R 	c #EAAF2C",
"S 	c #FBC431",
"T 	c #FBCA45",
"U 	c #FBD15A",
"V 	c #E0A32B",
"W 	c #DB9E28",
"X 	c #FBE53E",
"Y 	c #FBD83C",
"Z 	c #FCCA23",
"` 	c #FBCF27",
" .	c #E4AC2A",
"..	c #D38A28",
"+.	c #F1B028",
"@.	c #FBBD29",
"#.	c #EAA927",
"$.	c #C67B24",
"%.	c #E4AE2C",
"&.	c #FBCB24",
"*.	c #FCC920",
"=.	c #F6C625",
"-.	c #D28228",
";.	c #D18128",
">.	c #C57325",
",.	c #FAB522",
"'.	c #DA8E23",
").	c #B96623",
"!.	c #BF6D24",
"~.	c #D38728",
"{.	c #F7CA26",
"].	c #FCC91C",
"^.	c #EEB723",
"/.	c #CF7828",
"(.	c #CE7629",
"_.	c #D88A1B",
":.	c #D38022",
"<.	c #D17D28",
"[.	c #FCC818",
"}.	c #F2BC1D",
"|.	c #DA8F24",
"1.	c #CC6D28",
"2.	c #CD6F27",
"3.	c #DA8D24",
"4.	c #F4C01C",
"5.	c #FCC715",
"6.	c #FCC714",
"7.	c #FCC814",
"8.	c #F7C517",
"9.	c #F0B719",
"0.	c #FBC610",
"a.	c #FCC710",
"          . + @ @ # $           ",
"      % & & & & & & & * =       ",
"    - ; > , ' ) ) ' ! ; ; ~     ",
"  { ] ^ / ( _ : < [ ( } | ] 1   ",
"  2 3 4 5 5 6 7 7 8 9 5 0 3 2   ",
"a a b c c c d e f d g c c h a i ",
"j k l m m m n o p n q m m r k s ",
"t u v v v w x y z x A v v v B t ",
"C D E F F G H I J K L E F E M C ",
"N O P Q Q R S T U S V Q Q W X Y ",
"Z `  .....+.@.@.@.#.$.....%.&.Z ",
"  *.=.-.;.>.,.'.).!.;.;.~.{.*.  ",
"  ].].^./.(._.:.(.(.(.<.^.].].  ",
"    [.[.}.|.1.1.1.2.3.4.[.[.    ",
"      5.6.7.8.9.9.8.7.6.5.      ",
"          0.a.a.a.a.a.          "};
